<svg width="158" height="294" viewBox="0 0 158 294" fill="none" xmlns="http://www.w3.org/2000/svg">
<path d="M130.576 289.291C137.743 279.557 147.252 266.028 153.423 254.109M153.423 254.109C154.134 252.737 147.687 245.473 147.376 245.189C140.553 238.944 133.535 234.695 126.337 230.676M153.423 254.109C109.681 288.436 64.321 260.352 48.0426 201.275C46.4292 195.42 44.6762 189.044 43.2115 182.38M43.2115 182.38C40.8789 171.767 39.2775 160.424 40.1354 149.293C40.9274 139.021 44.0996 126.314 49.1368 122.489C58.5465 115.346 67.1621 135.911 64.4049 154.685C61.9821 171.182 51.5167 185.205 43.2115 182.38ZM43.2115 182.38C43.0363 182.32 42.8621 182.253 42.6889 182.178C0.892018 164.139 -4.16211 63.0727 15.3171 4.35449" stroke="#BFF747" stroke-width="8" stroke-miterlimit="1.5" stroke-linecap="round" stroke-linejoin="round"/>
</svg>
